<mxfile host="Electron" agent="Mozilla/5.0 (Windows NT 10.0; Win64; x64) AppleWebKit/537.36 (KHTML, like Gecko) draw.io/26.1.1 Chrome/132.0.6834.210 Electron/34.3.3 Safari/537.36" version="26.1.1">
  <diagram id="lu3XMvX7u7tXe7XHylQK" name="edit profile v1.0">
    <mxGraphModel dx="3471" dy="2020" grid="1" gridSize="10" guides="1" tooltips="1" connect="1" arrows="1" fold="1" page="1" pageScale="1" pageWidth="3300" pageHeight="4681" math="0" shadow="0">
      <root>
        <mxCell id="0" />
        <mxCell id="1" parent="0" />
        <mxCell id="uIMu7cp3odRX2bPd6YkY-1" value="Lifeline1" style="shape=umlLifeline;perimeter=lifelinePerimeter;whiteSpace=wrap;html=1;container=1;dropTarget=0;collapsible=0;recursiveResize=0;outlineConnect=0;portConstraint=eastwest;newEdgeStyle={&quot;edgeStyle&quot;:&quot;elbowEdgeStyle&quot;,&quot;elbow&quot;:&quot;vertical&quot;,&quot;curved&quot;:0,&quot;rounded&quot;:0};size=25;movable=1;resizable=1;rotatable=1;deletable=1;editable=1;locked=0;connectable=1;" vertex="1" parent="1">
          <mxGeometry x="1295" y="110" width="100" height="1850" as="geometry" />
        </mxCell>
        <mxCell id="uIMu7cp3odRX2bPd6YkY-57" value="" style="html=1;points=[];perimeter=orthogonalPerimeter;outlineConnect=0;targetShapes=umlLifeline;portConstraint=eastwest;newEdgeStyle={&quot;edgeStyle&quot;:&quot;elbowEdgeStyle&quot;,&quot;elbow&quot;:&quot;vertical&quot;,&quot;curved&quot;:0,&quot;rounded&quot;:0};" vertex="1" parent="uIMu7cp3odRX2bPd6YkY-1">
          <mxGeometry x="45" y="350" width="10" height="80" as="geometry" />
        </mxCell>
        <mxCell id="uIMu7cp3odRX2bPd6YkY-145" value="" style="html=1;points=[];perimeter=orthogonalPerimeter;outlineConnect=0;targetShapes=umlLifeline;portConstraint=eastwest;newEdgeStyle={&quot;edgeStyle&quot;:&quot;elbowEdgeStyle&quot;,&quot;elbow&quot;:&quot;vertical&quot;,&quot;curved&quot;:0,&quot;rounded&quot;:0};" vertex="1" parent="uIMu7cp3odRX2bPd6YkY-1">
          <mxGeometry x="45" y="1400" width="10" height="270" as="geometry" />
        </mxCell>
        <mxCell id="uIMu7cp3odRX2bPd6YkY-3" value="Lifeline1" style="shape=umlLifeline;perimeter=lifelinePerimeter;whiteSpace=wrap;html=1;container=1;dropTarget=0;collapsible=0;recursiveResize=0;outlineConnect=0;portConstraint=eastwest;newEdgeStyle={&quot;edgeStyle&quot;:&quot;elbowEdgeStyle&quot;,&quot;elbow&quot;:&quot;vertical&quot;,&quot;curved&quot;:0,&quot;rounded&quot;:0};size=25;movable=1;resizable=1;rotatable=1;deletable=1;editable=1;locked=0;connectable=1;" vertex="1" parent="1">
          <mxGeometry x="1105" y="110" width="100" height="1850" as="geometry" />
        </mxCell>
        <mxCell id="uIMu7cp3odRX2bPd6YkY-54" value="" style="html=1;points=[];perimeter=orthogonalPerimeter;outlineConnect=0;targetShapes=umlLifeline;portConstraint=eastwest;newEdgeStyle={&quot;edgeStyle&quot;:&quot;elbowEdgeStyle&quot;,&quot;elbow&quot;:&quot;vertical&quot;,&quot;curved&quot;:0,&quot;rounded&quot;:0};" vertex="1" parent="uIMu7cp3odRX2bPd6YkY-3">
          <mxGeometry x="45" y="280" width="10" height="80" as="geometry" />
        </mxCell>
        <mxCell id="uIMu7cp3odRX2bPd6YkY-120" value="" style="html=1;points=[];perimeter=orthogonalPerimeter;outlineConnect=0;targetShapes=umlLifeline;portConstraint=eastwest;newEdgeStyle={&quot;edgeStyle&quot;:&quot;elbowEdgeStyle&quot;,&quot;elbow&quot;:&quot;vertical&quot;,&quot;curved&quot;:0,&quot;rounded&quot;:0};" vertex="1" parent="uIMu7cp3odRX2bPd6YkY-3">
          <mxGeometry x="45" y="1040" width="10" height="190" as="geometry" />
        </mxCell>
        <mxCell id="uIMu7cp3odRX2bPd6YkY-6" value="Lifeline1" style="shape=umlLifeline;perimeter=lifelinePerimeter;whiteSpace=wrap;html=1;container=1;dropTarget=0;collapsible=0;recursiveResize=0;outlineConnect=0;portConstraint=eastwest;newEdgeStyle={&quot;edgeStyle&quot;:&quot;elbowEdgeStyle&quot;,&quot;elbow&quot;:&quot;vertical&quot;,&quot;curved&quot;:0,&quot;rounded&quot;:0};size=25;movable=1;resizable=1;rotatable=1;deletable=1;editable=1;locked=0;connectable=1;" vertex="1" parent="1">
          <mxGeometry x="945" y="110" width="100" height="1850" as="geometry" />
        </mxCell>
        <mxCell id="uIMu7cp3odRX2bPd6YkY-50" value="" style="html=1;points=[];perimeter=orthogonalPerimeter;outlineConnect=0;targetShapes=umlLifeline;portConstraint=eastwest;newEdgeStyle={&quot;edgeStyle&quot;:&quot;elbowEdgeStyle&quot;,&quot;elbow&quot;:&quot;vertical&quot;,&quot;curved&quot;:0,&quot;rounded&quot;:0};" vertex="1" parent="uIMu7cp3odRX2bPd6YkY-6">
          <mxGeometry x="45" y="200" width="10" height="80" as="geometry" />
        </mxCell>
        <mxCell id="uIMu7cp3odRX2bPd6YkY-9" value="Lifeline1" style="shape=umlLifeline;perimeter=lifelinePerimeter;whiteSpace=wrap;html=1;container=1;dropTarget=0;collapsible=0;recursiveResize=0;outlineConnect=0;portConstraint=eastwest;newEdgeStyle={&quot;edgeStyle&quot;:&quot;elbowEdgeStyle&quot;,&quot;elbow&quot;:&quot;vertical&quot;,&quot;curved&quot;:0,&quot;rounded&quot;:0};size=25;movable=1;resizable=1;rotatable=1;deletable=1;editable=1;locked=0;connectable=1;" vertex="1" parent="1">
          <mxGeometry x="785" y="110" width="100" height="1850" as="geometry" />
        </mxCell>
        <mxCell id="uIMu7cp3odRX2bPd6YkY-47" value="" style="html=1;points=[];perimeter=orthogonalPerimeter;outlineConnect=0;targetShapes=umlLifeline;portConstraint=eastwest;newEdgeStyle={&quot;edgeStyle&quot;:&quot;elbowEdgeStyle&quot;,&quot;elbow&quot;:&quot;vertical&quot;,&quot;curved&quot;:0,&quot;rounded&quot;:0};" vertex="1" parent="uIMu7cp3odRX2bPd6YkY-9">
          <mxGeometry x="45" y="100" width="10" height="90" as="geometry" />
        </mxCell>
        <mxCell id="uIMu7cp3odRX2bPd6YkY-11" value="Lifeline1" style="shape=umlLifeline;perimeter=lifelinePerimeter;whiteSpace=wrap;html=1;container=1;dropTarget=0;collapsible=0;recursiveResize=0;outlineConnect=0;portConstraint=eastwest;newEdgeStyle={&quot;edgeStyle&quot;:&quot;elbowEdgeStyle&quot;,&quot;elbow&quot;:&quot;vertical&quot;,&quot;curved&quot;:0,&quot;rounded&quot;:0};size=25;movable=1;resizable=1;rotatable=1;deletable=1;editable=1;locked=0;connectable=1;" vertex="1" parent="1">
          <mxGeometry x="625" y="110" width="100" height="1850" as="geometry" />
        </mxCell>
        <mxCell id="uIMu7cp3odRX2bPd6YkY-12" value="" style="html=1;points=[];perimeter=orthogonalPerimeter;outlineConnect=0;targetShapes=umlLifeline;portConstraint=eastwest;newEdgeStyle={&quot;edgeStyle&quot;:&quot;elbowEdgeStyle&quot;,&quot;elbow&quot;:&quot;vertical&quot;,&quot;curved&quot;:0,&quot;rounded&quot;:0};" vertex="1" parent="uIMu7cp3odRX2bPd6YkY-11">
          <mxGeometry x="45" y="100" width="10" height="440" as="geometry" />
        </mxCell>
        <mxCell id="uIMu7cp3odRX2bPd6YkY-13" value="Lifeline1" style="shape=umlLifeline;perimeter=lifelinePerimeter;whiteSpace=wrap;html=1;container=1;dropTarget=0;collapsible=0;recursiveResize=0;outlineConnect=0;portConstraint=eastwest;newEdgeStyle={&quot;edgeStyle&quot;:&quot;elbowEdgeStyle&quot;,&quot;elbow&quot;:&quot;vertical&quot;,&quot;curved&quot;:0,&quot;rounded&quot;:0};size=25;movable=1;resizable=1;rotatable=1;deletable=1;editable=1;locked=0;connectable=1;" vertex="1" parent="1">
          <mxGeometry x="465" y="100" width="100" height="1860" as="geometry" />
        </mxCell>
        <mxCell id="uIMu7cp3odRX2bPd6YkY-116" value="" style="html=1;points=[];perimeter=orthogonalPerimeter;outlineConnect=0;targetShapes=umlLifeline;portConstraint=eastwest;newEdgeStyle={&quot;edgeStyle&quot;:&quot;elbowEdgeStyle&quot;,&quot;elbow&quot;:&quot;vertical&quot;,&quot;curved&quot;:0,&quot;rounded&quot;:0};" vertex="1" parent="uIMu7cp3odRX2bPd6YkY-13">
          <mxGeometry x="45" y="970" width="10" height="80" as="geometry" />
        </mxCell>
        <mxCell id="uIMu7cp3odRX2bPd6YkY-141" value="" style="html=1;points=[];perimeter=orthogonalPerimeter;outlineConnect=0;targetShapes=umlLifeline;portConstraint=eastwest;newEdgeStyle={&quot;edgeStyle&quot;:&quot;elbowEdgeStyle&quot;,&quot;elbow&quot;:&quot;vertical&quot;,&quot;curved&quot;:0,&quot;rounded&quot;:0};" vertex="1" parent="uIMu7cp3odRX2bPd6YkY-13">
          <mxGeometry x="45" y="1360" width="10" height="80" as="geometry" />
        </mxCell>
        <mxCell id="uIMu7cp3odRX2bPd6YkY-15" value="" style="shape=umlActor;verticalLabelPosition=bottom;verticalAlign=top;html=1;outlineConnect=0;" vertex="1" parent="1">
          <mxGeometry x="360" y="80" width="30" height="60" as="geometry" />
        </mxCell>
        <mxCell id="uIMu7cp3odRX2bPd6YkY-16" value="&lt;font style=&quot;font-size: 10px;&quot;&gt;:Homescreen&lt;/font&gt;" style="html=1;whiteSpace=wrap;fillColor=#dae8fc;strokeColor=#6c8ebf;" vertex="1" parent="1">
          <mxGeometry x="460" y="100" width="110" height="40" as="geometry" />
        </mxCell>
        <mxCell id="uIMu7cp3odRX2bPd6YkY-17" value="&lt;font style=&quot;font-size: 10px;&quot;&gt;:EditProfileScreen&lt;/font&gt;" style="html=1;whiteSpace=wrap;fillColor=#dae8fc;strokeColor=#6c8ebf;" vertex="1" parent="1">
          <mxGeometry x="620" y="100" width="110" height="40" as="geometry" />
        </mxCell>
        <mxCell id="uIMu7cp3odRX2bPd6YkY-18" value="&lt;span style=&quot;font-size: 10px;&quot;&gt;:ChangeAvatar&lt;/span&gt;&lt;div&gt;&lt;span style=&quot;font-size: 10px;&quot;&gt;Controller&lt;/span&gt;&lt;/div&gt;" style="html=1;whiteSpace=wrap;fillColor=#dae8fc;strokeColor=#6c8ebf;" vertex="1" parent="1">
          <mxGeometry x="780" y="100" width="110" height="40" as="geometry" />
        </mxCell>
        <mxCell id="uIMu7cp3odRX2bPd6YkY-19" value=":ChangeRole&lt;div&gt;Controller&lt;/div&gt;" style="html=1;whiteSpace=wrap;fillColor=#dae8fc;strokeColor=#6c8ebf;" vertex="1" parent="1">
          <mxGeometry x="940" y="100" width="110" height="40" as="geometry" />
        </mxCell>
        <mxCell id="uIMu7cp3odRX2bPd6YkY-20" value="&lt;font style=&quot;font-size: 10px;&quot;&gt;:ChangeUsername&lt;/font&gt;&lt;div&gt;&lt;font style=&quot;font-size: 10px;&quot;&gt;Controller&lt;/font&gt;&lt;/div&gt;" style="html=1;whiteSpace=wrap;fillColor=#dae8fc;strokeColor=#6c8ebf;" vertex="1" parent="1">
          <mxGeometry x="1100" y="100" width="110" height="40" as="geometry" />
        </mxCell>
        <mxCell id="uIMu7cp3odRX2bPd6YkY-21" value="" style="html=1;points=[];perimeter=orthogonalPerimeter;outlineConnect=0;targetShapes=umlLifeline;portConstraint=eastwest;newEdgeStyle={&quot;edgeStyle&quot;:&quot;elbowEdgeStyle&quot;,&quot;elbow&quot;:&quot;vertical&quot;,&quot;curved&quot;:0,&quot;rounded&quot;:0};" vertex="1" parent="1">
          <mxGeometry x="510" y="150" width="10" height="80" as="geometry" />
        </mxCell>
        <mxCell id="uIMu7cp3odRX2bPd6YkY-65" style="edgeStyle=elbowEdgeStyle;rounded=0;orthogonalLoop=1;jettySize=auto;html=1;elbow=vertical;curved=0;" edge="1" parent="1" source="uIMu7cp3odRX2bPd6YkY-22" target="uIMu7cp3odRX2bPd6YkY-63">
          <mxGeometry relative="1" as="geometry" />
        </mxCell>
        <mxCell id="uIMu7cp3odRX2bPd6YkY-66" value="onSaveChangesButtonClicked()" style="edgeLabel;html=1;align=center;verticalAlign=middle;resizable=0;points=[];" vertex="1" connectable="0" parent="uIMu7cp3odRX2bPd6YkY-65">
          <mxGeometry x="0.1132" y="3" relative="1" as="geometry">
            <mxPoint x="43" y="3" as="offset" />
          </mxGeometry>
        </mxCell>
        <mxCell id="uIMu7cp3odRX2bPd6YkY-22" value="" style="html=1;points=[];perimeter=orthogonalPerimeter;outlineConnect=0;targetShapes=umlLifeline;portConstraint=eastwest;newEdgeStyle={&quot;edgeStyle&quot;:&quot;elbowEdgeStyle&quot;,&quot;elbow&quot;:&quot;vertical&quot;,&quot;curved&quot;:0,&quot;rounded&quot;:0};" vertex="1" parent="1">
          <mxGeometry x="370" y="150" width="10" height="1810" as="geometry" />
        </mxCell>
        <mxCell id="uIMu7cp3odRX2bPd6YkY-23" value="User" style="text;html=1;align=center;verticalAlign=middle;whiteSpace=wrap;rounded=0;" vertex="1" parent="1">
          <mxGeometry x="345" y="50" width="60" height="30" as="geometry" />
        </mxCell>
        <mxCell id="uIMu7cp3odRX2bPd6YkY-24" value="" style="html=1;verticalAlign=bottom;endArrow=block;curved=0;rounded=0;fontSize=10;startSize=8;endSize=8;" edge="1" parent="1">
          <mxGeometry width="80" relative="1" as="geometry">
            <mxPoint x="380" y="180" as="sourcePoint" />
            <mxPoint x="510" y="180" as="targetPoint" />
          </mxGeometry>
        </mxCell>
        <mxCell id="uIMu7cp3odRX2bPd6YkY-25" value="onEditProfileButtonClicked()" style="html=1;verticalAlign=bottom;endArrow=block;curved=0;rounded=0;" edge="1" parent="1">
          <mxGeometry width="80" relative="1" as="geometry">
            <mxPoint x="520" y="220" as="sourcePoint" />
            <mxPoint x="670" y="220" as="targetPoint" />
          </mxGeometry>
        </mxCell>
        <mxCell id="uIMu7cp3odRX2bPd6YkY-32" value=":ChangeNumber&amp;nbsp;&lt;div&gt;Controller&lt;/div&gt;" style="html=1;whiteSpace=wrap;fillColor=#dae8fc;strokeColor=#6c8ebf;" vertex="1" parent="1">
          <mxGeometry x="1290" y="100" width="110" height="40" as="geometry" />
        </mxCell>
        <mxCell id="uIMu7cp3odRX2bPd6YkY-33" value="&lt;span style=&quot;color: rgb(0, 0, 0); font-family: Helvetica; font-style: normal; font-variant-ligatures: normal; font-variant-caps: normal; font-weight: 400; letter-spacing: normal; orphans: 2; text-align: center; text-indent: 0px; text-transform: none; widows: 2; word-spacing: 0px; -webkit-text-stroke-width: 0px; white-space: nowrap; background-color: rgb(255, 255, 255); text-decoration-thickness: initial; text-decoration-style: initial; text-decoration-color: initial; float: none; display: inline !important;&quot;&gt;&lt;font style=&quot;font-size: 9px;&quot;&gt;navigateToHomeScreen&lt;/font&gt;&lt;/span&gt;&lt;span style=&quot;color: rgb(0, 0, 0); font-family: Helvetica; font-size: 11px; font-style: normal; font-variant-ligatures: normal; font-variant-caps: normal; font-weight: 400; letter-spacing: normal; orphans: 2; text-align: center; text-indent: 0px; text-transform: none; widows: 2; word-spacing: 0px; -webkit-text-stroke-width: 0px; white-space: nowrap; background-color: rgb(255, 255, 255); text-decoration-thickness: initial; text-decoration-style: initial; text-decoration-color: initial; float: none; display: inline !important;&quot;&gt;()&lt;/span&gt;" style="text;whiteSpace=wrap;html=1;" vertex="1" parent="1">
          <mxGeometry x="390" y="150" width="80" height="20" as="geometry" />
        </mxCell>
        <mxCell id="uIMu7cp3odRX2bPd6YkY-42" value="alt" style="shape=umlFrame;whiteSpace=wrap;html=1;pointerEvents=0;recursiveResize=0;container=0;collapsible=0;width=170;fillColor=#f8cecc;strokeColor=#b85450;strokeWidth=2;" vertex="1" parent="1">
          <mxGeometry x="300" y="680" width="890" height="310" as="geometry" />
        </mxCell>
        <mxCell id="uIMu7cp3odRX2bPd6YkY-44" value="Lifeline1" style="shape=umlLifeline;perimeter=lifelinePerimeter;whiteSpace=wrap;html=1;container=1;dropTarget=0;collapsible=0;recursiveResize=0;outlineConnect=0;portConstraint=eastwest;newEdgeStyle={&quot;edgeStyle&quot;:&quot;elbowEdgeStyle&quot;,&quot;elbow&quot;:&quot;vertical&quot;,&quot;curved&quot;:0,&quot;rounded&quot;:0};size=25;movable=1;resizable=1;rotatable=1;deletable=1;editable=1;locked=0;connectable=1;" vertex="1" parent="1">
          <mxGeometry x="1725" y="110" width="100" height="1850" as="geometry" />
        </mxCell>
        <mxCell id="uIMu7cp3odRX2bPd6YkY-67" style="edgeStyle=elbowEdgeStyle;rounded=0;orthogonalLoop=1;jettySize=auto;html=1;elbow=vertical;curved=0;" edge="1" parent="uIMu7cp3odRX2bPd6YkY-44" source="uIMu7cp3odRX2bPd6YkY-45" target="uIMu7cp3odRX2bPd6YkY-44">
          <mxGeometry relative="1" as="geometry" />
        </mxCell>
        <mxCell id="uIMu7cp3odRX2bPd6YkY-45" value="" style="html=1;points=[];perimeter=orthogonalPerimeter;outlineConnect=0;targetShapes=umlLifeline;portConstraint=eastwest;newEdgeStyle={&quot;edgeStyle&quot;:&quot;elbowEdgeStyle&quot;,&quot;elbow&quot;:&quot;vertical&quot;,&quot;curved&quot;:0,&quot;rounded&quot;:0};" vertex="1" parent="uIMu7cp3odRX2bPd6YkY-44">
          <mxGeometry x="43.120000000000005" y="450" width="13.75" height="70" as="geometry" />
        </mxCell>
        <mxCell id="uIMu7cp3odRX2bPd6YkY-127" value="" style="html=1;points=[];perimeter=orthogonalPerimeter;outlineConnect=0;targetShapes=umlLifeline;portConstraint=eastwest;newEdgeStyle={&quot;edgeStyle&quot;:&quot;elbowEdgeStyle&quot;,&quot;elbow&quot;:&quot;vertical&quot;,&quot;curved&quot;:0,&quot;rounded&quot;:0};" vertex="1" parent="uIMu7cp3odRX2bPd6YkY-44">
          <mxGeometry x="43.11999999999989" y="1090" width="13.75" height="70" as="geometry" />
        </mxCell>
        <mxCell id="uIMu7cp3odRX2bPd6YkY-151" value="" style="html=1;points=[];perimeter=orthogonalPerimeter;outlineConnect=0;targetShapes=umlLifeline;portConstraint=eastwest;newEdgeStyle={&quot;edgeStyle&quot;:&quot;elbowEdgeStyle&quot;,&quot;elbow&quot;:&quot;vertical&quot;,&quot;curved&quot;:0,&quot;rounded&quot;:0};" vertex="1" parent="uIMu7cp3odRX2bPd6YkY-44">
          <mxGeometry x="43.12999999999988" y="1500" width="13.75" height="70" as="geometry" />
        </mxCell>
        <mxCell id="uIMu7cp3odRX2bPd6YkY-46" value=":Database" style="html=1;whiteSpace=wrap;fillColor=#ffe6cc;strokeColor=#d79b00;" vertex="1" parent="1">
          <mxGeometry x="1720" y="100" width="110" height="40" as="geometry" />
        </mxCell>
        <mxCell id="uIMu7cp3odRX2bPd6YkY-48" style="edgeStyle=elbowEdgeStyle;rounded=0;orthogonalLoop=1;jettySize=auto;html=1;elbow=vertical;curved=0;exitX=1;exitY=0.159;exitDx=0;exitDy=0;exitPerimeter=0;" edge="1" parent="1">
          <mxGeometry relative="1" as="geometry">
            <mxPoint x="380" y="250" as="sourcePoint" />
            <mxPoint x="829.9999999999995" y="250.1776470588236" as="targetPoint" />
          </mxGeometry>
        </mxCell>
        <mxCell id="uIMu7cp3odRX2bPd6YkY-75" value="onSelectNewAvatarClicked()" style="edgeLabel;html=1;align=center;verticalAlign=middle;resizable=0;points=[];" vertex="1" connectable="0" parent="uIMu7cp3odRX2bPd6YkY-48">
          <mxGeometry x="-0.6442" y="1" relative="1" as="geometry">
            <mxPoint x="130" as="offset" />
          </mxGeometry>
        </mxCell>
        <mxCell id="uIMu7cp3odRX2bPd6YkY-51" style="edgeStyle=elbowEdgeStyle;rounded=0;orthogonalLoop=1;jettySize=auto;html=1;elbow=vertical;curved=0;" edge="1" parent="1" source="uIMu7cp3odRX2bPd6YkY-52" target="uIMu7cp3odRX2bPd6YkY-50">
          <mxGeometry relative="1" as="geometry" />
        </mxCell>
        <mxCell id="uIMu7cp3odRX2bPd6YkY-53" value="" style="edgeStyle=elbowEdgeStyle;rounded=0;orthogonalLoop=1;jettySize=auto;html=1;elbow=vertical;curved=0;endArrow=none;startFill=0;" edge="1" parent="1" source="uIMu7cp3odRX2bPd6YkY-22" target="uIMu7cp3odRX2bPd6YkY-52">
          <mxGeometry relative="1" as="geometry">
            <mxPoint x="680" y="350" as="sourcePoint" />
            <mxPoint x="990" y="350" as="targetPoint" />
          </mxGeometry>
        </mxCell>
        <mxCell id="uIMu7cp3odRX2bPd6YkY-52" value="onChangeRoleBoxClicked()" style="text;html=1;align=center;verticalAlign=middle;resizable=0;points=[];autosize=1;strokeColor=none;fillColor=none;" vertex="1" parent="1">
          <mxGeometry x="760" y="330" width="170" height="30" as="geometry" />
        </mxCell>
        <mxCell id="uIMu7cp3odRX2bPd6YkY-55" style="edgeStyle=elbowEdgeStyle;rounded=0;orthogonalLoop=1;jettySize=auto;html=1;elbow=vertical;curved=0;" edge="1" parent="1" source="uIMu7cp3odRX2bPd6YkY-22" target="uIMu7cp3odRX2bPd6YkY-54">
          <mxGeometry relative="1" as="geometry" />
        </mxCell>
        <mxCell id="uIMu7cp3odRX2bPd6YkY-56" value="onChangeUsernameFieldClicked()" style="edgeLabel;html=1;align=center;verticalAlign=middle;resizable=0;points=[];" vertex="1" connectable="0" parent="uIMu7cp3odRX2bPd6YkY-55">
          <mxGeometry x="-0.0774" y="-2" relative="1" as="geometry">
            <mxPoint x="85" y="-12" as="offset" />
          </mxGeometry>
        </mxCell>
        <mxCell id="uIMu7cp3odRX2bPd6YkY-58" style="edgeStyle=elbowEdgeStyle;rounded=0;orthogonalLoop=1;jettySize=auto;html=1;elbow=vertical;curved=0;" edge="1" parent="1" source="uIMu7cp3odRX2bPd6YkY-22" target="uIMu7cp3odRX2bPd6YkY-57">
          <mxGeometry relative="1" as="geometry" />
        </mxCell>
        <mxCell id="uIMu7cp3odRX2bPd6YkY-61" value="onChangeNumberFieldClicked()" style="edgeLabel;html=1;align=center;verticalAlign=middle;resizable=0;points=[];" vertex="1" connectable="0" parent="uIMu7cp3odRX2bPd6YkY-58">
          <mxGeometry x="-0.2504" y="-2" relative="1" as="geometry">
            <mxPoint x="170" y="-2" as="offset" />
          </mxGeometry>
        </mxCell>
        <mxCell id="uIMu7cp3odRX2bPd6YkY-62" value="Lifeline1" style="shape=umlLifeline;perimeter=lifelinePerimeter;whiteSpace=wrap;html=1;container=1;dropTarget=0;collapsible=0;recursiveResize=0;outlineConnect=0;portConstraint=eastwest;newEdgeStyle={&quot;edgeStyle&quot;:&quot;elbowEdgeStyle&quot;,&quot;elbow&quot;:&quot;vertical&quot;,&quot;curved&quot;:0,&quot;rounded&quot;:0};size=25;movable=1;resizable=1;rotatable=1;deletable=1;editable=1;locked=0;connectable=1;" vertex="1" parent="1">
          <mxGeometry x="1515" y="110" width="100" height="1850" as="geometry" />
        </mxCell>
        <mxCell id="uIMu7cp3odRX2bPd6YkY-63" value="" style="html=1;points=[];perimeter=orthogonalPerimeter;outlineConnect=0;targetShapes=umlLifeline;portConstraint=eastwest;newEdgeStyle={&quot;edgeStyle&quot;:&quot;elbowEdgeStyle&quot;,&quot;elbow&quot;:&quot;vertical&quot;,&quot;curved&quot;:0,&quot;rounded&quot;:0};" vertex="1" parent="uIMu7cp3odRX2bPd6YkY-62">
          <mxGeometry x="45" y="430" width="10" height="80" as="geometry" />
        </mxCell>
        <mxCell id="uIMu7cp3odRX2bPd6YkY-123" value="" style="html=1;points=[];perimeter=orthogonalPerimeter;outlineConnect=0;targetShapes=umlLifeline;portConstraint=eastwest;newEdgeStyle={&quot;edgeStyle&quot;:&quot;elbowEdgeStyle&quot;,&quot;elbow&quot;:&quot;vertical&quot;,&quot;curved&quot;:0,&quot;rounded&quot;:0};" vertex="1" parent="uIMu7cp3odRX2bPd6YkY-62">
          <mxGeometry x="45" y="1090" width="10" height="130" as="geometry" />
        </mxCell>
        <mxCell id="uIMu7cp3odRX2bPd6YkY-148" value="" style="html=1;points=[];perimeter=orthogonalPerimeter;outlineConnect=0;targetShapes=umlLifeline;portConstraint=eastwest;newEdgeStyle={&quot;edgeStyle&quot;:&quot;elbowEdgeStyle&quot;,&quot;elbow&quot;:&quot;vertical&quot;,&quot;curved&quot;:0,&quot;rounded&quot;:0};" vertex="1" parent="uIMu7cp3odRX2bPd6YkY-62">
          <mxGeometry x="45" y="1500" width="10" height="130" as="geometry" />
        </mxCell>
        <mxCell id="uIMu7cp3odRX2bPd6YkY-64" value=":SaveChanges&amp;nbsp;&lt;div&gt;Controller&lt;/div&gt;" style="html=1;whiteSpace=wrap;fillColor=#dae8fc;strokeColor=#6c8ebf;" vertex="1" parent="1">
          <mxGeometry x="1510" y="100" width="110" height="40" as="geometry" />
        </mxCell>
        <mxCell id="uIMu7cp3odRX2bPd6YkY-68" style="edgeStyle=elbowEdgeStyle;rounded=0;orthogonalLoop=1;jettySize=auto;html=1;elbow=vertical;curved=0;" edge="1" parent="1" source="uIMu7cp3odRX2bPd6YkY-63">
          <mxGeometry relative="1" as="geometry">
            <mxPoint x="1770" y="580" as="targetPoint" />
          </mxGeometry>
        </mxCell>
        <mxCell id="uIMu7cp3odRX2bPd6YkY-69" value="saveChanges()" style="edgeLabel;html=1;align=center;verticalAlign=middle;resizable=0;points=[];" vertex="1" connectable="0" parent="uIMu7cp3odRX2bPd6YkY-68">
          <mxGeometry x="-0.282" relative="1" as="geometry">
            <mxPoint as="offset" />
          </mxGeometry>
        </mxCell>
        <mxCell id="uIMu7cp3odRX2bPd6YkY-70" style="edgeStyle=elbowEdgeStyle;rounded=0;orthogonalLoop=1;jettySize=auto;html=1;elbow=vertical;curved=0;" edge="1" parent="1" source="uIMu7cp3odRX2bPd6YkY-45">
          <mxGeometry relative="1" as="geometry">
            <mxPoint x="1570" y="595" as="targetPoint" />
          </mxGeometry>
        </mxCell>
        <mxCell id="uIMu7cp3odRX2bPd6YkY-71" value="return success" style="text;html=1;align=center;verticalAlign=middle;resizable=0;points=[];autosize=1;strokeColor=none;fillColor=none;" vertex="1" parent="1">
          <mxGeometry x="1615" y="598" width="100" height="30" as="geometry" />
        </mxCell>
        <mxCell id="uIMu7cp3odRX2bPd6YkY-72" style="edgeStyle=elbowEdgeStyle;rounded=0;orthogonalLoop=1;jettySize=auto;html=1;elbow=vertical;curved=0;" edge="1" parent="1" source="uIMu7cp3odRX2bPd6YkY-63" target="uIMu7cp3odRX2bPd6YkY-12">
          <mxGeometry relative="1" as="geometry">
            <Array as="points">
              <mxPoint x="1110" y="610" />
            </Array>
          </mxGeometry>
        </mxCell>
        <mxCell id="uIMu7cp3odRX2bPd6YkY-73" value="successPopup()" style="edgeLabel;html=1;align=center;verticalAlign=middle;resizable=0;points=[];" vertex="1" connectable="0" parent="uIMu7cp3odRX2bPd6YkY-72">
          <mxGeometry x="0.48" y="-4" relative="1" as="geometry">
            <mxPoint as="offset" />
          </mxGeometry>
        </mxCell>
        <mxCell id="uIMu7cp3odRX2bPd6YkY-76" value="" style="html=1;points=[];perimeter=orthogonalPerimeter;outlineConnect=0;targetShapes=umlLifeline;portConstraint=eastwest;newEdgeStyle={&quot;edgeStyle&quot;:&quot;elbowEdgeStyle&quot;,&quot;elbow&quot;:&quot;vertical&quot;,&quot;curved&quot;:0,&quot;rounded&quot;:0};" vertex="1" parent="1">
          <mxGeometry x="510" y="770" width="10" height="80" as="geometry" />
        </mxCell>
        <mxCell id="uIMu7cp3odRX2bPd6YkY-77" value="" style="html=1;verticalAlign=bottom;endArrow=block;curved=0;rounded=0;fontSize=10;startSize=8;endSize=8;" edge="1" parent="1">
          <mxGeometry width="80" relative="1" as="geometry">
            <mxPoint x="380" y="800" as="sourcePoint" />
            <mxPoint x="510" y="800" as="targetPoint" />
          </mxGeometry>
        </mxCell>
        <mxCell id="uIMu7cp3odRX2bPd6YkY-78" value="&lt;span style=&quot;color: rgb(0, 0, 0); font-family: Helvetica; font-style: normal; font-variant-ligatures: normal; font-variant-caps: normal; font-weight: 400; letter-spacing: normal; orphans: 2; text-align: center; text-indent: 0px; text-transform: none; widows: 2; word-spacing: 0px; -webkit-text-stroke-width: 0px; white-space: nowrap; background-color: rgb(255, 255, 255); text-decoration-thickness: initial; text-decoration-style: initial; text-decoration-color: initial; float: none; display: inline !important;&quot;&gt;&lt;font style=&quot;font-size: 9px;&quot;&gt;navigateToHomeScreen&lt;/font&gt;&lt;/span&gt;&lt;span style=&quot;color: rgb(0, 0, 0); font-family: Helvetica; font-size: 11px; font-style: normal; font-variant-ligatures: normal; font-variant-caps: normal; font-weight: 400; letter-spacing: normal; orphans: 2; text-align: center; text-indent: 0px; text-transform: none; widows: 2; word-spacing: 0px; -webkit-text-stroke-width: 0px; white-space: nowrap; background-color: rgb(255, 255, 255); text-decoration-thickness: initial; text-decoration-style: initial; text-decoration-color: initial; float: none; display: inline !important;&quot;&gt;()&lt;/span&gt;" style="text;whiteSpace=wrap;html=1;" vertex="1" parent="1">
          <mxGeometry x="390" y="770" width="80" height="20" as="geometry" />
        </mxCell>
        <mxCell id="uIMu7cp3odRX2bPd6YkY-87" style="edgeStyle=elbowEdgeStyle;rounded=0;orthogonalLoop=1;jettySize=auto;html=1;elbow=horizontal;curved=0;" edge="1" parent="1">
          <mxGeometry relative="1" as="geometry">
            <mxPoint x="830" y="924.5" as="sourcePoint" />
            <mxPoint x="680" y="924.5" as="targetPoint" />
          </mxGeometry>
        </mxCell>
        <mxCell id="uIMu7cp3odRX2bPd6YkY-89" value="invalidTypeOfFileError()" style="edgeLabel;html=1;align=center;verticalAlign=middle;resizable=0;points=[];" vertex="1" connectable="0" parent="uIMu7cp3odRX2bPd6YkY-87">
          <mxGeometry x="0.3227" y="2" relative="1" as="geometry">
            <mxPoint x="29" y="-1" as="offset" />
          </mxGeometry>
        </mxCell>
        <mxCell id="uIMu7cp3odRX2bPd6YkY-79" value="" style="html=1;points=[];perimeter=orthogonalPerimeter;outlineConnect=0;targetShapes=umlLifeline;portConstraint=eastwest;newEdgeStyle={&quot;edgeStyle&quot;:&quot;elbowEdgeStyle&quot;,&quot;elbow&quot;:&quot;vertical&quot;,&quot;curved&quot;:0,&quot;rounded&quot;:0};" vertex="1" parent="1">
          <mxGeometry x="830" y="800" width="10" height="130" as="geometry" />
        </mxCell>
        <mxCell id="uIMu7cp3odRX2bPd6YkY-80" value="onEditProfileButtonClicked()" style="html=1;verticalAlign=bottom;endArrow=block;curved=0;rounded=0;" edge="1" parent="1">
          <mxGeometry width="80" relative="1" as="geometry">
            <mxPoint x="520" y="800" as="sourcePoint" />
            <mxPoint x="670" y="800" as="targetPoint" />
          </mxGeometry>
        </mxCell>
        <mxCell id="uIMu7cp3odRX2bPd6YkY-81" value="" style="html=1;points=[];perimeter=orthogonalPerimeter;outlineConnect=0;targetShapes=umlLifeline;portConstraint=eastwest;newEdgeStyle={&quot;edgeStyle&quot;:&quot;elbowEdgeStyle&quot;,&quot;elbow&quot;:&quot;vertical&quot;,&quot;curved&quot;:0,&quot;rounded&quot;:0};" vertex="1" parent="1">
          <mxGeometry x="670" y="760" width="10" height="1180" as="geometry" />
        </mxCell>
        <mxCell id="uIMu7cp3odRX2bPd6YkY-82" style="edgeStyle=elbowEdgeStyle;rounded=0;orthogonalLoop=1;jettySize=auto;html=1;elbow=vertical;curved=0;exitX=1;exitY=0.159;exitDx=0;exitDy=0;exitPerimeter=0;" edge="1" parent="1">
          <mxGeometry relative="1" as="geometry">
            <mxPoint x="380" y="860" as="sourcePoint" />
            <mxPoint x="829.9999999999995" y="860.1776470588236" as="targetPoint" />
          </mxGeometry>
        </mxCell>
        <mxCell id="uIMu7cp3odRX2bPd6YkY-83" value="onSelectNewAvatarClicked()" style="edgeLabel;html=1;align=center;verticalAlign=middle;resizable=0;points=[];" vertex="1" connectable="0" parent="uIMu7cp3odRX2bPd6YkY-82">
          <mxGeometry x="-0.6442" y="1" relative="1" as="geometry">
            <mxPoint x="130" as="offset" />
          </mxGeometry>
        </mxCell>
        <mxCell id="uIMu7cp3odRX2bPd6YkY-84" style="edgeStyle=elbowEdgeStyle;rounded=0;orthogonalLoop=1;jettySize=auto;html=1;elbow=vertical;curved=0;exitX=1;exitY=0.159;exitDx=0;exitDy=0;exitPerimeter=0;" edge="1" parent="1">
          <mxGeometry relative="1" as="geometry">
            <mxPoint x="380" y="880" as="sourcePoint" />
            <mxPoint x="829.9999999999995" y="880.1776470588236" as="targetPoint" />
          </mxGeometry>
        </mxCell>
        <mxCell id="uIMu7cp3odRX2bPd6YkY-85" value="onOpenButtonClicked()" style="edgeLabel;html=1;align=center;verticalAlign=middle;resizable=0;points=[];" vertex="1" connectable="0" parent="uIMu7cp3odRX2bPd6YkY-84">
          <mxGeometry x="-0.6442" y="1" relative="1" as="geometry">
            <mxPoint x="130" as="offset" />
          </mxGeometry>
        </mxCell>
        <mxCell id="uIMu7cp3odRX2bPd6YkY-86" value="1. user hasn&#39;t selected an&lt;div&gt;&lt;span style=&quot;background-color: transparent; color: light-dark(rgb(0, 0, 0), rgb(255, 255, 255));&quot;&gt;&amp;nbsp;acceptable image file type&lt;/span&gt;&lt;/div&gt;" style="text;html=1;align=center;verticalAlign=middle;resizable=0;points=[];autosize=1;strokeColor=none;fillColor=none;fontSize=17;textShadow=0;fontStyle=4" vertex="1" parent="1">
          <mxGeometry x="75" y="740" width="220" height="50" as="geometry" />
        </mxCell>
        <mxCell id="uIMu7cp3odRX2bPd6YkY-90" value="loop" style="shape=umlFrame;whiteSpace=wrap;html=1;pointerEvents=0;recursiveResize=0;container=0;collapsible=0;width=170;fillColor=#d5e8d4;strokeColor=#82b366;strokeWidth=2;" vertex="1" parent="1">
          <mxGeometry x="350" y="720" width="750" height="240" as="geometry" />
        </mxCell>
        <mxCell id="uIMu7cp3odRX2bPd6YkY-117" value="" style="html=1;verticalAlign=bottom;endArrow=block;curved=0;rounded=0;fontSize=10;startSize=8;endSize=8;" edge="1" parent="1">
          <mxGeometry width="80" relative="1" as="geometry">
            <mxPoint x="380" y="1090" as="sourcePoint" />
            <mxPoint x="510" y="1090" as="targetPoint" />
          </mxGeometry>
        </mxCell>
        <mxCell id="uIMu7cp3odRX2bPd6YkY-118" value="&lt;span style=&quot;color: rgb(0, 0, 0); font-family: Helvetica; font-style: normal; font-variant-ligatures: normal; font-variant-caps: normal; font-weight: 400; letter-spacing: normal; orphans: 2; text-align: center; text-indent: 0px; text-transform: none; widows: 2; word-spacing: 0px; -webkit-text-stroke-width: 0px; white-space: nowrap; background-color: rgb(255, 255, 255); text-decoration-thickness: initial; text-decoration-style: initial; text-decoration-color: initial; float: none; display: inline !important;&quot;&gt;&lt;font style=&quot;font-size: 9px;&quot;&gt;navigateToHomeScreen&lt;/font&gt;&lt;/span&gt;&lt;span style=&quot;color: rgb(0, 0, 0); font-family: Helvetica; font-size: 11px; font-style: normal; font-variant-ligatures: normal; font-variant-caps: normal; font-weight: 400; letter-spacing: normal; orphans: 2; text-align: center; text-indent: 0px; text-transform: none; widows: 2; word-spacing: 0px; -webkit-text-stroke-width: 0px; white-space: nowrap; background-color: rgb(255, 255, 255); text-decoration-thickness: initial; text-decoration-style: initial; text-decoration-color: initial; float: none; display: inline !important;&quot;&gt;()&lt;/span&gt;" style="text;whiteSpace=wrap;html=1;" vertex="1" parent="1">
          <mxGeometry x="385" y="1070" width="80" height="20" as="geometry" />
        </mxCell>
        <mxCell id="uIMu7cp3odRX2bPd6YkY-119" value="onEditProfileButtonClicked()" style="html=1;verticalAlign=bottom;endArrow=block;curved=0;rounded=0;" edge="1" parent="1">
          <mxGeometry width="80" relative="1" as="geometry">
            <mxPoint x="520" y="1100" as="sourcePoint" />
            <mxPoint x="670" y="1100" as="targetPoint" />
          </mxGeometry>
        </mxCell>
        <mxCell id="uIMu7cp3odRX2bPd6YkY-121" style="edgeStyle=elbowEdgeStyle;rounded=0;orthogonalLoop=1;jettySize=auto;html=1;elbow=vertical;curved=0;" edge="1" parent="1">
          <mxGeometry relative="1" as="geometry">
            <mxPoint x="380" y="1180.1799999999998" as="sourcePoint" />
            <mxPoint x="1150" y="1180.1799999999998" as="targetPoint" />
          </mxGeometry>
        </mxCell>
        <mxCell id="uIMu7cp3odRX2bPd6YkY-122" value="onChangeUsernameFieldClicked()" style="edgeLabel;html=1;align=center;verticalAlign=middle;resizable=0;points=[];" vertex="1" connectable="0" parent="uIMu7cp3odRX2bPd6YkY-121">
          <mxGeometry x="-0.0774" y="-2" relative="1" as="geometry">
            <mxPoint x="85" y="-12" as="offset" />
          </mxGeometry>
        </mxCell>
        <mxCell id="uIMu7cp3odRX2bPd6YkY-124" style="edgeStyle=elbowEdgeStyle;rounded=0;orthogonalLoop=1;jettySize=auto;html=1;elbow=vertical;curved=0;" edge="1" parent="1">
          <mxGeometry relative="1" as="geometry">
            <mxPoint x="380" y="1238" as="sourcePoint" />
            <mxPoint x="1560" y="1238" as="targetPoint" />
          </mxGeometry>
        </mxCell>
        <mxCell id="uIMu7cp3odRX2bPd6YkY-125" value="onSaveChangesButtonClicked()" style="edgeLabel;html=1;align=center;verticalAlign=middle;resizable=0;points=[];" vertex="1" connectable="0" parent="uIMu7cp3odRX2bPd6YkY-124">
          <mxGeometry x="0.1132" y="3" relative="1" as="geometry">
            <mxPoint x="-127" y="1" as="offset" />
          </mxGeometry>
        </mxCell>
        <mxCell id="uIMu7cp3odRX2bPd6YkY-128" style="edgeStyle=elbowEdgeStyle;rounded=0;orthogonalLoop=1;jettySize=auto;html=1;elbow=vertical;curved=0;" edge="1" parent="1" source="uIMu7cp3odRX2bPd6YkY-123">
          <mxGeometry relative="1" as="geometry">
            <mxPoint x="1580" y="1220" as="sourcePoint" />
            <mxPoint x="1760" y="1220" as="targetPoint" />
            <Array as="points">
              <mxPoint x="1760" y="1220" />
            </Array>
          </mxGeometry>
        </mxCell>
        <mxCell id="uIMu7cp3odRX2bPd6YkY-129" value="saveChanges()" style="edgeLabel;html=1;align=center;verticalAlign=middle;resizable=0;points=[];" vertex="1" connectable="0" parent="uIMu7cp3odRX2bPd6YkY-128">
          <mxGeometry x="-0.282" relative="1" as="geometry">
            <mxPoint x="27" as="offset" />
          </mxGeometry>
        </mxCell>
        <mxCell id="uIMu7cp3odRX2bPd6YkY-130" style="edgeStyle=elbowEdgeStyle;rounded=0;orthogonalLoop=1;jettySize=auto;html=1;elbow=vertical;curved=0;" edge="1" parent="1">
          <mxGeometry relative="1" as="geometry">
            <mxPoint x="1768" y="1240.47" as="sourcePoint" />
            <mxPoint x="1570" y="1240.47" as="targetPoint" />
          </mxGeometry>
        </mxCell>
        <mxCell id="uIMu7cp3odRX2bPd6YkY-131" value="return error" style="text;html=1;align=center;verticalAlign=middle;resizable=0;points=[];autosize=1;strokeColor=none;fillColor=none;" vertex="1" parent="1">
          <mxGeometry x="1620" y="1238" width="80" height="30" as="geometry" />
        </mxCell>
        <mxCell id="uIMu7cp3odRX2bPd6YkY-133" style="edgeStyle=elbowEdgeStyle;rounded=0;orthogonalLoop=1;jettySize=auto;html=1;elbow=vertical;curved=0;" edge="1" parent="1" source="uIMu7cp3odRX2bPd6YkY-123">
          <mxGeometry relative="1" as="geometry">
            <mxPoint x="1160" y="1265" as="targetPoint" />
            <Array as="points">
              <mxPoint x="1160" y="1265" />
            </Array>
          </mxGeometry>
        </mxCell>
        <mxCell id="uIMu7cp3odRX2bPd6YkY-134" value="usernameValidatorError()" style="edgeLabel;html=1;align=center;verticalAlign=middle;resizable=0;points=[];" vertex="1" connectable="0" parent="uIMu7cp3odRX2bPd6YkY-133">
          <mxGeometry x="0.7012" y="2" relative="1" as="geometry">
            <mxPoint x="130" y="-2" as="offset" />
          </mxGeometry>
        </mxCell>
        <mxCell id="uIMu7cp3odRX2bPd6YkY-135" style="edgeStyle=elbowEdgeStyle;rounded=0;orthogonalLoop=1;jettySize=auto;html=1;elbow=vertical;curved=0;" edge="1" parent="1">
          <mxGeometry relative="1" as="geometry">
            <mxPoint x="1559.9999999999995" y="1310" as="sourcePoint" />
            <mxPoint x="680" y="1310" as="targetPoint" />
            <Array as="points">
              <mxPoint x="1130" y="1310" />
            </Array>
          </mxGeometry>
        </mxCell>
        <mxCell id="uIMu7cp3odRX2bPd6YkY-136" value="usernameErrorPopUp()" style="edgeLabel;html=1;align=center;verticalAlign=middle;resizable=0;points=[];" vertex="1" connectable="0" parent="uIMu7cp3odRX2bPd6YkY-135">
          <mxGeometry x="0.538" relative="1" as="geometry">
            <mxPoint x="26" as="offset" />
          </mxGeometry>
        </mxCell>
        <mxCell id="uIMu7cp3odRX2bPd6YkY-137" value="alt" style="shape=umlFrame;whiteSpace=wrap;html=1;pointerEvents=0;recursiveResize=0;container=0;collapsible=0;width=170;fillColor=#f8cecc;strokeColor=#b85450;strokeWidth=2;" vertex="1" parent="1">
          <mxGeometry x="250" y="1010" width="1620" height="410" as="geometry" />
        </mxCell>
        <mxCell id="uIMu7cp3odRX2bPd6YkY-138" value="loop" style="shape=umlFrame;whiteSpace=wrap;html=1;pointerEvents=0;recursiveResize=0;container=0;collapsible=0;width=170;fillColor=#d5e8d4;strokeColor=#82b366;strokeWidth=2;" vertex="1" parent="1">
          <mxGeometry x="290" y="1040" width="1560" height="360" as="geometry" />
        </mxCell>
        <mxCell id="uIMu7cp3odRX2bPd6YkY-139" value="&lt;span style=&quot;color: rgb(0, 0, 0); font-family: Helvetica; font-size: 17px; font-style: normal; font-variant-ligatures: normal; font-variant-caps: normal; font-weight: 400; letter-spacing: normal; orphans: 2; text-align: center; text-indent: 0px; text-transform: none; widows: 2; word-spacing: 0px; -webkit-text-stroke-width: 0px; white-space: nowrap; background-color: rgb(251, 251, 251); float: none; display: inline !important;&quot;&gt;&lt;u&gt;2. user has selected a not&lt;/u&gt;&lt;/span&gt;&lt;div&gt;&lt;u style=&quot;background-color: transparent; color: light-dark(rgb(0, 0, 0), rgb(255, 255, 255)); font-size: 17px; text-align: center; text-wrap-mode: nowrap;&quot;&gt;acceptable username&lt;/u&gt;&lt;/div&gt;" style="text;whiteSpace=wrap;html=1;" vertex="1" parent="1">
          <mxGeometry x="70" y="1178" width="230" height="60" as="geometry" />
        </mxCell>
        <mxCell id="uIMu7cp3odRX2bPd6YkY-140" value="" style="html=1;verticalAlign=bottom;endArrow=block;curved=0;rounded=0;fontSize=10;startSize=8;endSize=8;" edge="1" parent="1">
          <mxGeometry width="80" relative="1" as="geometry">
            <mxPoint x="380" y="1460" as="sourcePoint" />
            <mxPoint x="510" y="1460" as="targetPoint" />
          </mxGeometry>
        </mxCell>
        <mxCell id="uIMu7cp3odRX2bPd6YkY-142" value="navigateToHomeScreen()" style="text;html=1;align=center;verticalAlign=middle;resizable=0;points=[];autosize=1;strokeColor=none;fillColor=none;fontSize=8;" vertex="1" parent="1">
          <mxGeometry x="395" y="1433" width="110" height="20" as="geometry" />
        </mxCell>
        <mxCell id="uIMu7cp3odRX2bPd6YkY-144" value="onEditProfileButtonClicked()" style="html=1;verticalAlign=bottom;endArrow=block;curved=0;rounded=0;" edge="1" parent="1">
          <mxGeometry width="80" relative="1" as="geometry">
            <mxPoint x="520" y="1480" as="sourcePoint" />
            <mxPoint x="670" y="1480" as="targetPoint" />
          </mxGeometry>
        </mxCell>
        <mxCell id="uIMu7cp3odRX2bPd6YkY-146" style="edgeStyle=elbowEdgeStyle;rounded=0;orthogonalLoop=1;jettySize=auto;html=1;elbow=vertical;curved=0;" edge="1" parent="1">
          <mxGeometry relative="1" as="geometry">
            <mxPoint x="380" y="1560" as="sourcePoint" />
            <mxPoint x="1340" y="1560" as="targetPoint" />
          </mxGeometry>
        </mxCell>
        <mxCell id="uIMu7cp3odRX2bPd6YkY-147" value="onChangeNumberFieldClicked()" style="edgeLabel;html=1;align=center;verticalAlign=middle;resizable=0;points=[];" vertex="1" connectable="0" parent="uIMu7cp3odRX2bPd6YkY-146">
          <mxGeometry x="-0.2504" y="-2" relative="1" as="geometry">
            <mxPoint x="170" y="-2" as="offset" />
          </mxGeometry>
        </mxCell>
        <mxCell id="uIMu7cp3odRX2bPd6YkY-149" style="edgeStyle=elbowEdgeStyle;rounded=0;orthogonalLoop=1;jettySize=auto;html=1;elbow=vertical;curved=0;" edge="1" parent="1">
          <mxGeometry relative="1" as="geometry">
            <mxPoint x="380" y="1640" as="sourcePoint" />
            <mxPoint x="1560" y="1640" as="targetPoint" />
          </mxGeometry>
        </mxCell>
        <mxCell id="uIMu7cp3odRX2bPd6YkY-150" value="onSaveChangesButtonClicked()" style="edgeLabel;html=1;align=center;verticalAlign=middle;resizable=0;points=[];" vertex="1" connectable="0" parent="uIMu7cp3odRX2bPd6YkY-149">
          <mxGeometry x="0.1132" y="3" relative="1" as="geometry">
            <mxPoint x="43" y="3" as="offset" />
          </mxGeometry>
        </mxCell>
        <mxCell id="uIMu7cp3odRX2bPd6YkY-152" style="edgeStyle=elbowEdgeStyle;rounded=0;orthogonalLoop=1;jettySize=auto;html=1;elbow=vertical;curved=0;" edge="1" parent="1">
          <mxGeometry relative="1" as="geometry">
            <mxPoint x="1570" y="1620" as="sourcePoint" />
            <mxPoint x="1760" y="1620" as="targetPoint" />
            <Array as="points">
              <mxPoint x="1760" y="1620" />
            </Array>
          </mxGeometry>
        </mxCell>
        <mxCell id="uIMu7cp3odRX2bPd6YkY-153" value="saveChanges()" style="edgeLabel;html=1;align=center;verticalAlign=middle;resizable=0;points=[];" vertex="1" connectable="0" parent="uIMu7cp3odRX2bPd6YkY-152">
          <mxGeometry x="-0.282" relative="1" as="geometry">
            <mxPoint x="32" as="offset" />
          </mxGeometry>
        </mxCell>
        <mxCell id="uIMu7cp3odRX2bPd6YkY-154" style="edgeStyle=elbowEdgeStyle;rounded=0;orthogonalLoop=1;jettySize=auto;html=1;elbow=vertical;curved=0;" edge="1" parent="1">
          <mxGeometry relative="1" as="geometry">
            <mxPoint x="1768" y="1650.47" as="sourcePoint" />
            <mxPoint x="1570" y="1650.47" as="targetPoint" />
          </mxGeometry>
        </mxCell>
        <mxCell id="uIMu7cp3odRX2bPd6YkY-155" style="edgeStyle=elbowEdgeStyle;rounded=0;orthogonalLoop=1;jettySize=auto;html=1;elbow=vertical;curved=0;" edge="1" parent="1" source="uIMu7cp3odRX2bPd6YkY-148">
          <mxGeometry relative="1" as="geometry">
            <mxPoint x="1350" y="1676" as="targetPoint" />
          </mxGeometry>
        </mxCell>
        <mxCell id="uIMu7cp3odRX2bPd6YkY-156" value="numberValidationError()" style="text;html=1;align=center;verticalAlign=middle;resizable=0;points=[];autosize=1;strokeColor=none;fillColor=none;" vertex="1" parent="1">
          <mxGeometry x="1380" y="1680" width="150" height="30" as="geometry" />
        </mxCell>
        <mxCell id="uIMu7cp3odRX2bPd6YkY-157" style="edgeStyle=elbowEdgeStyle;rounded=0;orthogonalLoop=1;jettySize=auto;html=1;elbow=vertical;curved=0;" edge="1" parent="1">
          <mxGeometry relative="1" as="geometry">
            <mxPoint x="1559.9999999999995" y="1730" as="sourcePoint" />
            <mxPoint x="680" y="1730" as="targetPoint" />
            <Array as="points">
              <mxPoint x="1130" y="1730" />
            </Array>
          </mxGeometry>
        </mxCell>
        <mxCell id="uIMu7cp3odRX2bPd6YkY-158" value="numberErrorPopUp()" style="edgeLabel;html=1;align=center;verticalAlign=middle;resizable=0;points=[];" vertex="1" connectable="0" parent="uIMu7cp3odRX2bPd6YkY-157">
          <mxGeometry x="0.538" relative="1" as="geometry">
            <mxPoint x="26" as="offset" />
          </mxGeometry>
        </mxCell>
        <mxCell id="uIMu7cp3odRX2bPd6YkY-159" value="return error" style="text;html=1;align=center;verticalAlign=middle;resizable=0;points=[];autosize=1;strokeColor=none;fillColor=none;" vertex="1" parent="1">
          <mxGeometry x="1640" y="1650" width="80" height="30" as="geometry" />
        </mxCell>
        <mxCell id="uIMu7cp3odRX2bPd6YkY-160" value="alt" style="shape=umlFrame;whiteSpace=wrap;html=1;pointerEvents=0;recursiveResize=0;container=0;collapsible=0;width=170;fillColor=#f8cecc;strokeColor=#b85450;strokeWidth=4;" vertex="1" parent="1">
          <mxGeometry x="115" y="1433" width="1760" height="453.5" as="geometry" />
        </mxCell>
        <mxCell id="uIMu7cp3odRX2bPd6YkY-161" value="loop" style="shape=umlFrame;whiteSpace=wrap;html=1;pointerEvents=0;recursiveResize=0;container=0;collapsible=0;width=170;fillColor=#d5e8d4;strokeColor=#82b366;strokeWidth=4;" vertex="1" parent="1">
          <mxGeometry x="200" y="1453" width="1640" height="377" as="geometry" />
        </mxCell>
        <mxCell id="uIMu7cp3odRX2bPd6YkY-162" value="&lt;span style=&quot;forced-color-adjust: none; color: rgb(0, 0, 0); font-family: Helvetica; font-style: normal; font-variant-ligatures: normal; font-variant-caps: normal; font-weight: 400; letter-spacing: normal; orphans: 2; text-indent: 0px; text-transform: none; widows: 2; word-spacing: 0px; -webkit-text-stroke-width: 0px; white-space: nowrap; text-decoration-thickness: initial; text-decoration-style: initial; text-decoration-color: initial; font-size: 17px; text-align: center; background-color: rgb(251, 251, 251); float: none; display: inline !important;&quot;&gt;&lt;u style=&quot;forced-color-adjust: none;&quot;&gt;3. user has entered an&lt;/u&gt;&lt;/span&gt;&lt;div style=&quot;forced-color-adjust: none; color: rgb(0, 0, 0); font-family: Helvetica; font-style: normal; font-variant-ligatures: normal; font-variant-caps: normal; font-weight: 400; letter-spacing: normal; orphans: 2; text-indent: 0px; text-transform: none; widows: 2; word-spacing: 0px; -webkit-text-stroke-width: 0px; white-space: nowrap; text-decoration-thickness: initial; text-decoration-style: initial; text-decoration-color: initial; font-size: 17px; text-align: center; background-color: rgb(251, 251, 251);&quot;&gt;&lt;span style=&quot;forced-color-adjust: none; background-color: transparent; color: light-dark(rgb(0, 0, 0), rgb(255, 255, 255));&quot;&gt;&lt;u style=&quot;forced-color-adjust: none;&quot;&gt;&amp;nbsp;invalid number&lt;/u&gt;&lt;/span&gt;&lt;/div&gt;" style="text;whiteSpace=wrap;html=1;" vertex="1" parent="1">
          <mxGeometry x="150" y="1665" width="230" height="60" as="geometry" />
        </mxCell>
        <mxCell id="uIMu7cp3odRX2bPd6YkY-163" style="edgeStyle=elbowEdgeStyle;rounded=0;orthogonalLoop=1;jettySize=auto;html=1;elbow=vertical;curved=0;" edge="1" parent="1" source="uIMu7cp3odRX2bPd6YkY-79" target="uIMu7cp3odRX2bPd6YkY-79">
          <mxGeometry relative="1" as="geometry">
            <Array as="points">
              <mxPoint x="960" y="870" />
            </Array>
          </mxGeometry>
        </mxCell>
        <mxCell id="uIMu7cp3odRX2bPd6YkY-164" value="imageValidator()" style="text;html=1;align=center;verticalAlign=middle;resizable=0;points=[];autosize=1;strokeColor=none;fillColor=none;" vertex="1" parent="1">
          <mxGeometry x="855" y="830" width="110" height="30" as="geometry" />
        </mxCell>
      </root>
    </mxGraphModel>
  </diagram>
</mxfile>
